HIERARCHY
ROOT Hips
{
    OFFSET 0.000000 0.000000 0.000000
    CHANNELS 6 Xposition Yposition Zposition Zrotation Xrotation Yrotation
    JOINT Spine
    {
        OFFSET -0.000000 8.339920 0.000000
        CHANNELS 3 Zrotation Xrotation Yrotation
        JOINT Spine1
        {
            OFFSET -0.000000 25.214485 0.000000
            CHANNELS 3 Zrotation Xrotation Yrotation
            JOINT Neck
            {
                OFFSET -0.000000 25.110935 2.282812
                CHANNELS 3 Zrotation Xrotation Yrotation
                JOINT Head
                {
                    OFFSET -0.000000 14.238888 -2.034127
                    CHANNELS 3 Zrotation Xrotation Yrotation
                    End Site
                    {
                        OFFSET -0.000000 25.426584 0.000000
                    }
                }
            }
            JOINT LeftShoulder
            {
                OFFSET 4.025024 23.158985 -0.185822
                CHANNELS 3 Zrotation Xrotation Yrotation
                JOINT LeftArm
                {
                    OFFSET 11.674057 0.000000 0.000000
                    CHANNELS 3 Zrotation Xrotation Yrotation
                    JOINT LeftForeArm
                    {
                        OFFSET 31.688633 0.000000 0.000000
                        CHANNELS 3 Zrotation Xrotation Yrotation
                        JOINT LeftHand
                        {
                            OFFSET 29.704493 0.000000 0.000000
                            CHANNELS 3 Zrotation Xrotation Yrotation
                            End Site
                            {
                                OFFSET 15.255952 0.000000 0.000000
                            }
                        }
                    }
                }
            }
            JOINT RightShoulder
            {
                OFFSET -4.099539 23.158985 -0.185822
                CHANNELS 3 Zrotation Xrotation Yrotation
                JOINT RightArm
                {
                    OFFSET -11.674057 0.000000 0.000000
                    CHANNELS 3 Zrotation Xrotation Yrotation
                    JOINT RightForeArm
                    {
                        OFFSET -31.688633 0.000000 0.000000
                        CHANNELS 3 Zrotation Xrotation Yrotation
                        JOINT RightHand
                        {
                            OFFSET -29.704493 0.000000 0.000000
                            CHANNELS 3 Zrotation Xrotation Yrotation
                            End Site
                            {
                                OFFSET -15.255952 0.000000 0.000000
                            }
                        }
                    }
                }
            }
        }
    }
    JOINT LeftUpLeg
    {
        OFFSET 10.170634 0.000000 0.000000
        CHANNELS 3 Zrotation Xrotation Yrotation
        JOINT LeftLeg
        {
            OFFSET -0.000000 -41.352962 0.000000
            CHANNELS 3 Zrotation Xrotation Yrotation
            JOINT LeftFoot
            {
                OFFSET -0.000000 -47.535004 0.000000
                CHANNELS 3 Zrotation Xrotation Yrotation
                JOINT LeftToeBase
                {
                    OFFSET -0.000000 -6.610912 15.255952
                    CHANNELS 3 Zrotation Xrotation Yrotation
                    End Site
                    {
                        OFFSET -0.000000 0.000000 4.068254
                    }
                }
            }
        }
    }
    JOINT RightUpLeg
    {
        OFFSET -10.170634 0.000000 0.000000
        CHANNELS 3 Zrotation Xrotation Yrotation
        JOINT RightLeg
        {
            OFFSET -0.000000 -41.352962 0.000000
            CHANNELS 3 Zrotation Xrotation Yrotation
            JOINT RightFoot
            {
                OFFSET -0.000000 -47.535004 0.000000
                CHANNELS 3 Zrotation Xrotation Yrotation
                JOINT RightToeBase
                {
                    OFFSET -0.000000 -6.610912 15.255952
                    CHANNELS 3 Zrotation Xrotation Yrotation
                    End Site
                    {
                        OFFSET -0.000000 0.000000 4.068254
                    }
                }
            }
        }
    }
}
MOTION
Frames:    4
Frame Time:    0.008333
12.579338    93.884293    31.170208    1.316475    -1.486231    85.814247    -2.164008    -7.129376    -6.695668    6.555111    10.557193    -7.167206    -6.565763    24.236942    0.576878    4.286345    -7.522111    0.980046    6.339675    0.277577    -10.544679    -43.284714    43.517952    -35.502411    10.316814    -21.123167    -21.011648    -10.427184    -19.491890    1.967535    -12.359722    2.444074    -0.035368    83.152000    64.376076    -3.329552    3.581083    -10.400434    14.115484    -7.105121    -10.818703    -0.288120    -1.143148    18.586868    3.265314    -1.906601    -2.442364    2.376856    -2.188718    -4.225185    -0.246006    0.000000    0.000000    0.000000    2.931558    -17.573431    8.621558    -2.373363    7.237535    -7.427022    8.943521    -7.891992    -7.776906    0.000000    0.000000    0.000000    
13.492751    93.807571    31.192446    1.033250    -1.345986    86.095856    -2.316936    -7.283273    -6.858174    6.600814    10.520533    -7.319160    -6.445203    24.218689    0.642782    4.437973    -7.777140    1.100098    6.669198    0.097257    -10.542364    -42.750675    43.001305    -36.226486    10.959883    -21.104712    -21.504190    -11.009282    -19.308487    1.806876    -12.340650    2.961390    -0.549955    83.451500    64.439423    -4.054317    3.793441    -10.490633    14.290812    -7.007652    -10.955560    -0.040188    -1.173785    18.908525    3.228564    -1.910759    -2.651554    2.688377    -2.556247    -3.840980    -0.963897    0.000000    0.000000    0.000000    2.873810    -17.111713    8.793077    -2.592360    3.477933    -6.682165    10.150894    -7.725016    -7.539005    0.000000    0.000000    0.000000    
14.455806    93.711006    31.223253    0.915895    -1.167015    86.388329    -2.628929    -7.355738    -6.866788    6.729737    10.462561    -7.314721    -6.021483    24.932159    0.621503    4.421253    -8.906518    1.106900    6.853837    0.096965    -10.834260    -41.686321    42.686714    -37.319340    11.822582    -21.126068    -21.765884    -11.679057    -19.132124    1.545543    -12.181734    3.304860    -0.455431    84.894493    63.839138    -6.223477    3.886799    -10.735817    14.616665    -7.061839    -11.235864    0.174927    -1.272274    19.429829    3.177107    -1.875900    -2.845477    2.574914    -2.868878    -3.477394    -1.218234    0.000000    0.000000    0.000000    2.727822    -16.462976    9.195171    -2.854399    0.031177    -6.142725    10.935221    -7.554054    -7.054641    0.000000    0.000000    0.000000    
15.393250    93.555153    31.263506    0.678832    -1.001242    86.729851    -2.878071    -7.568527    -7.037024    6.884892    10.626787    -7.487790    -5.843353    24.672388    0.435199    4.357121    -8.820569    0.924787    7.093668    -0.117220    -10.801635    -40.993332    42.204037    -38.071655    12.395976    -21.128988    -22.376884    -11.658924    -18.938387    1.278035    -12.543422    3.360952    -0.717248    86.397629    63.657635    -7.874892    4.033306    -10.879818    14.712335    -6.701624    -11.429943    0.681286    -1.285598    19.772451    3.163799    -1.914532    -2.915057    2.253464    -2.983095    -3.400703    -1.478170    0.000000    0.000000    0.000000    2.659276    -15.979565    10.148405    -3.247059    -3.073663    -6.462500    11.796406    -7.336746    -6.679832    0.000000    0.000000    0.000000    
